<?xml version="1.0" encoding="UTF-8" standalone="no"?>
<!-- Created with Inkscape (http://www.inkscape.org/) -->

<svg
   width="27.233999mm"
   height="27.233999mm"
   viewBox="0 0 27.233999 27.234"
   version="1.1"
   id="svg1"
   inkscape:version="1.4 (86a8ad7, 2024-10-11)"
   sodipodi:docname="portal_favicon_alt.svg"
   xml:space="preserve"
   inkscape:export-filename="portal_favicon_16x.png"
   inkscape:export-xdpi="12.952576"
   inkscape:export-ydpi="12.952576"
   xmlns:inkscape="http://www.inkscape.org/namespaces/inkscape"
   xmlns:sodipodi="http://sodipodi.sourceforge.net/DTD/sodipodi-0.dtd"
   xmlns="http://www.w3.org/2000/svg"
   xmlns:svg="http://www.w3.org/2000/svg"><sodipodi:namedview
     id="namedview1"
     pagecolor="#505050"
     bordercolor="#eeeeee"
     borderopacity="1"
     inkscape:showpageshadow="0"
     inkscape:pageopacity="0"
     inkscape:pagecheckerboard="0"
     inkscape:deskcolor="#505050"
     inkscape:document-units="mm"
     inkscape:zoom="4.217999"
     inkscape:cx="27.738271"
     inkscape:cy="55.120923"
     inkscape:window-width="1920"
     inkscape:window-height="1017"
     inkscape:window-x="-8"
     inkscape:window-y="-8"
     inkscape:window-maximized="1"
     inkscape:current-layer="layer1" /><defs
     id="defs1"><inkscape:path-effect
       effect="powerstroke"
       message=""
       id="path-effect15"
       is_visible="true"
       lpeversion="1.3"
       scale_width="1"
       interpolator_type="CentripetalCatmullRom"
       interpolator_beta="0.2"
       start_linecap_type="zerowidth"
       end_linecap_type="zerowidth"
       offset_points="0.2,0.76673001 | 2,0.76673001 | 3.5137991,0.37523368"
       linejoin_type="round"
       miter_limit="4"
       not_jump="false"
       sort_points="true" /><inkscape:path-effect
       effect="powerstroke"
       message=""
       id="path-effect7"
       is_visible="true"
       lpeversion="1.3"
       scale_width="10"
       interpolator_type="CentripetalCatmullRom"
       interpolator_beta="0.2"
       start_linecap_type="round"
       end_linecap_type="zerowidth"
       offset_points="0.2,0.13249999 | 3,0.13249999 | 5.8,0.13249999"
       linejoin_type="round"
       miter_limit="4"
       not_jump="false"
       sort_points="true" /><inkscape:path-effect
       effect="powerstroke"
       message=""
       id="path-effect6"
       is_visible="true"
       lpeversion="1.3"
       scale_width="10"
       interpolator_type="CentripetalCatmullRom"
       interpolator_beta="0.2"
       start_linecap_type="round"
       end_linecap_type="zerowidth"
       offset_points="0.2,0.13249817 | 3,0.13249817 | 5.8,0.13249817"
       linejoin_type="round"
       miter_limit="4"
       not_jump="false"
       sort_points="true" /><inkscape:path-effect
       effect="powerstroke"
       message=""
       id="path-effect10"
       is_visible="true"
       lpeversion="1.3"
       scale_width="0.7"
       interpolator_type="CentripetalCatmullRom"
       interpolator_beta="0.23006834"
       start_linecap_type="round"
       end_linecap_type="zerowidth"
       offset_points="0.2,2.5 | 5.5,2.5 | 10.097057,1.878689"
       linejoin_type="round"
       miter_limit="4"
       not_jump="false"
       sort_points="true" /><inkscape:path-effect
       effect="powerstroke"
       message=""
       id="path-effect9"
       is_visible="true"
       lpeversion="1.3"
       scale_width="1"
       interpolator_type="Linear"
       interpolator_beta="1"
       start_linecap_type="round"
       end_linecap_type="zerowidth"
       offset_points="0.2,2.5 | 5.5,2.5 | 10.8,2.5"
       linejoin_type="bevel"
       miter_limit="20"
       not_jump="false"
       sort_points="true" /><inkscape:path-effect
       effect="taper_stroke"
       start_shape="center | center"
       end_shape="center | center"
       id="path-effect8"
       is_visible="true"
       lpeversion="1"
       stroke_width="5"
       subpath="1"
       attach_start="0.2"
       end_offset="0.2"
       start_smoothing="0.5"
       end_smoothing="0.5"
       jointype="extrapolated"
       miter_limit="100" /></defs><g
     inkscape:label="Layer 1"
     inkscape:groupmode="layer"
     id="layer1"><path
       style="fill:#000000;fill-opacity:1;stroke:#ffffff;stroke-width:2;stroke-linecap:square;stroke-linejoin:round;stroke-dasharray:none;stroke-opacity:1;paint-order:stroke fill markers"
       d="M 0.99997253,24.455887 2.9999556,14.455875 c 0,0 3.2700422,-1.017579 5.5291175,-0.02917 2.1472039,0.939469 4.5874599,1.383338 4.5874599,1.383338 v 10.000012 c 0,0 -2.916912,-1.338108 -5.9955531,-1.822426 -2.1176631,-0.33314 -6.12100737,0.468258 -6.12100737,0.468258 z"
       id="path9"
       sodipodi:nodetypes="ccsccsc" /><path
       style="fill:#000000;fill-opacity:1;stroke:#ffffff;stroke-width:2;stroke-linecap:square;stroke-linejoin:round;stroke-dasharray:none;stroke-opacity:1;paint-order:stroke fill markers"
       d="M 3.1166206,21.810051 5.1166028,11.280873 c 0,0 2.7408811,0.04076 4.9999572,1.029168 2.147203,0.939465 2.999973,3.500003 2.999973,3.500003 v 10.000011 c 0,0 -2.207599,-2.576594 -4.4707939,-3.500003 C 6.6608858,21.50021 3.1166206,21.810051 3.1166206,21.810051 Z"
       id="path10"
       sodipodi:nodetypes="ccsccsc" /><path
       style="fill:#000000;fill-opacity:1;stroke:#ffffff;stroke-width:2;stroke-linecap:square;stroke-linejoin:round;stroke-dasharray:none;stroke-opacity:1;paint-order:stroke fill markers"
       d="M 26.234027,24.455887 24.234018,14.455875 c 0,0 -3.270096,-1.017579 -5.529202,-0.02917 -2.147232,0.939469 -4.587523,1.383338 -4.587523,1.383338 v 10.000012 c 0,0 2.916953,-1.338108 5.995636,-1.822426 2.117693,-0.33314 6.121098,0.468258 6.121098,0.468258 z"
       id="path11"
       sodipodi:nodetypes="ccsccsc" /><path
       style="fill:#000000;fill-opacity:1;stroke:#ffffff;stroke-width:2;stroke-linecap:square;stroke-linejoin:round;stroke-dasharray:none;stroke-opacity:1;paint-order:stroke fill markers"
       d="m 24.117343,21.810051 -2.00001,-10.529178 c 0,0 -2.740918,0.04076 -5.000024,1.029168 -2.147234,0.939465 -3.000016,3.500003 -3.000016,3.500003 v 10.000011 c 0,0 2.207631,-2.576594 4.470855,-3.500003 1.984881,-0.809842 5.529195,-0.500001 5.529195,-0.500001 z"
       id="path12"
       sodipodi:nodetypes="ccsccsc" /><path
       id="rect12"
       style="display:none;stroke:#ffffff;stroke-width:2;stroke-linecap:square;stroke-linejoin:round;stroke-dasharray:none;paint-order:stroke fill markers"
       d="M 13.616629,0.9997157 12.201235,6.2557254 9.8288093,4.889399 11.194594,7.2623818 5.9386721,8.6777995 11.194594,10.093218 9.8288093,12.4662 l 2.3724257,-1.366324 0.103351,0.383955 v 7.667232 l 1.058315,4.701521 h 0.544661 l 1.058316,-4.701521 v -7.805724 l 0.06615,-0.245463 2.372943,1.366325 L 16.038668,10.093218 21.295106,8.6777995 16.038668,7.2623818 17.40497,4.889399 15.032027,6.2557254 Z" /><path
       id="path14"
       style="display:inline;fill:#000000;fill-opacity:1;stroke:#ffffff;stroke-width:2;stroke-linecap:square;stroke-linejoin:round;stroke-dasharray:none;stroke-opacity:1;paint-order:stroke fill markers"
       d="m 16.516575,1.4253628 c -0.307196,-0.0058 -0.636339,0.0065 -0.984973,0.044441 -0.914056,0.099592 -1.887803,0.3704485 -2.820043,0.8723 -0.0509,0.0274 -0.101768,0.055671 -0.152965,0.084751 C 11.740203,2.8915618 10.879767,3.57681 10.167475,4.5543755 9.5565542,5.392818 9.0581341,6.4463717 8.8347111,7.7154266 c -0.149046,0.8098281 -0.153112,1.676765 -0.0015,2.5393814 0.145537,0.828145 0.4336071,1.643491 0.8619821,2.375569 0.4256778,0.727443 0.9867848,1.366568 1.6717678,1.843816 0.180855,0.126007 0.369099,0.239341 0.563802,0.340031 l -3.7212989,0.590663 3.9088889,0.621152 -2.3249728,3.202908 3.2029738,-2.324926 0.620646,3.908294 0.620647,-3.908294 3.202974,2.324926 -2.324972,-3.202908 3.908887,-0.621152 -3.908887,-0.620634 2.324972,-3.202909 L 14.237647,13.90627 13.617,9.9974595 12.996354,13.90627 11.349391,12.710993 C 11.121483,12.477223 10.913801,12.213929 10.729259,11.925509 10.362084,11.351654 10.096026,10.694477 9.9432452,10.009346 9.7843212,9.2967001 9.7521182,8.5739053 9.8388562,7.8926762 9.9896792,6.7958008 10.375503,5.865071 10.872923,5.1000786 c 0.581695,-0.8945994 1.314665,-1.5637313 2.031444,-2.0474215 0.04489,-0.0303 0.08959,-0.059991 0.134361,-0.088881 C 13.859833,2.4339408 14.734589,2.0781045 15.593099,1.8739185 16.905053,1.5618848 17.987234,1.6477441 18.605897,1.7535117 18.16042,1.6219637 17.438166,1.4428181 16.516575,1.4253658 Z" /></g></svg>
